<svg width="96" height="96" viewBox="0 0 96 96" fill="none" xmlns="http://www.w3.org/2000/svg">
  <rect width="96" height="96" rx="18" fill="#F2F2F2"/>
  <g transform="translate(17 16)">
    <path d="M7 0H22C29 0 34 2 39 7L62 30L36 56L13 33C9 29 7 24 7 18V4C7 2 9 0 7 0Z" fill="#43964A"/>
    <path d="M7 0H22C29 0 34 2 39 7L49 17L26 40L13 33C9 29 7 24 7 18V4C7 2 9 0 7 0Z" fill="#43964A"/>
    <path d="M0 58V47C0 40 2 35 7 30L30 7L53 30L30 53C25 58 20 60 13 60H3C1 60 0 59 0 58Z" fill="#287DB6"/>
    <path d="M40 7C45 2 50 0 57 0H74C76 0 77 1 77 3V18C77 24 75 29 70 34L47 57L24 34L40 7Z" fill="#3FA9CF"/>
    <path d="M50 40L70 60C75 65 77 70 77 76V93C77 95 76 96 74 96H57C50 96 45 94 40 89L24 73L50 40Z" fill="#1F1F21"/>
    <path d="M36 29H20" stroke="#E9E9E9" stroke-width="7" stroke-linecap="round"/>
    <path d="M20 45H36L47 34L36 23" stroke="#E9E9E9" stroke-width="7" stroke-linecap="round" stroke-linejoin="round"/>
  </g>
</svg>
