<svg width="420" height="420" viewBox="0 0 420 420" fill="none" xmlns="http://www.w3.org/2000/svg">
  <rect width="420" height="420" rx="28" fill="#F2F2F2"/>
  <g transform="translate(145 95)">
    <path d="M12 0H43C57 0 68 5 78 15L126 63L73 116L25 68C17 60 12 49 12 36V8C12 3 15 0 12 0Z" fill="#43964A"/>
    <path d="M12 0H43C57 0 68 5 78 15L99 36L52 83L25 68C17 60 12 49 12 36V8C12 3 15 0 12 0Z" fill="#43964A"/>
    <path d="M0 120V97C0 83 5 72 15 62L62 15L109 62L62 109C52 119 41 124 27 124H7C3 124 0 122 0 120Z" fill="#287DB6"/>
    <path d="M82 15C92 5 103 0 117 0H152C156 0 159 3 159 7V36C159 49 154 60 144 70L97 117L50 70L82 15Z" fill="#3FA9CF"/>
    <path d="M103 82L144 123C154 133 159 144 159 157V192C159 196 156 199 152 199H117C103 199 92 194 82 184L50 152L103 82Z" fill="#1F1F21"/>
    <path d="M73 60H40" stroke="#E9E9E9" stroke-width="14" stroke-linecap="round"/>
    <path d="M40 93H73L96 70L73 47" stroke="#E9E9E9" stroke-width="14" stroke-linecap="round" stroke-linejoin="round"/>
  </g>
  <text x="210" y="282" text-anchor="middle" fill="#020202" font-family="Arial, Helvetica, sans-serif" font-size="50" font-weight="900" letter-spacing="3">XOCODE</text>
</svg>
